:SAMPLES-PER-SECOND 30
:FRAME-RANGE 1-564
:FULLY-SPECIFIED
:DEGREES
406
root  11.8762 21.6541 -101.419 -168.56 -10.896 -173.162
RightUpLeg  -83.5264 9.67769 -1.52591
RightLeg  109.73 0.0981891 0.687575
RightFoot  -34.9165 2.06836 11.0286
RightToes  -1.74624e-010 0 -3.6325e-017
Spine  30.2867 14.1707 8.4708
Spine1  41.5944 5.23576 26.3431
HEad  -36.409 -38.3863 -11.6687
LeftShoulder1  8.07167 -21.2512 -26.3728
LeftArm  -14.538 -73.7139 -65.3322
LeftForeArm  7.46121 -4.00316 -10.0871
LeftHand  -1.49999 -8.55139 12.8035
RightShoulder  2.66403 23.0762 1.72862
RightArm  -46.3831 31.8327 -10.2452
RightForeArm  -5.00814 5.25006 6.28571
RightHand  0.23192 25.41 0.344476
LeftUpLeg  -79.2393 10.5706 11.9044
LeftLeg  114.43 3.03217 -6.72036
LeftFoot  -42.4691 1.10207 3.02512
LeftToes  -6.43926e-010 8.38805e-011 -3.16407e-011
407
root  11.9031 21.9866 -101.398 -167.747 -10.982 -172.933
RightUpLeg  -83.2673 9.73896 -1.20912
RightLeg  108.092 0.249108 0.31325
RightFoot  -35.0621 2.01476 10.7107
RightToes  -1.74624e-010 0 -3.6325e-017
Spine  30.6499 13.3552 8.76164
Spine1  41.089 5.36935 24.9067
HEad  -37.25 -37.5668 -10.6961
LeftShoulder1  7.9218 -20.6204 -26.6249
LeftArm  -16.4375 -74.123 -62.6179
LeftForeArm  7.08622 -3.81598 -10.024
LeftHand  -1.47243 -8.36335 12.7405
RightShoulder  2.88617 24.7885 1.91327
RightArm  -46.848 32.2577 -10.4407
RightForeArm  -4.33565 4.46826 6.10149
RightHand  -0.16512 24.8646 -1.14208
LeftUpLeg  -79.3 10.0932 12.0391
LeftLeg  112.979 2.44633 -5.91499
LeftFoot  -42.3193 1.03804 2.81313
LeftToes  -6.43926e-010 8.38805e-011 -3.16407e-011
408
root  11.9434 22.3775 -101.373 -166.613 -10.7648 -173.068
RightUpLeg  -83.2345 10.0061 -1.40104
RightLeg  106.184 0.35081 0.0103871
RightFoot  -35.0744 1.97489 10.5171
RightToes  -1.74624e-010 0 -3.6325e-017
Spine  30.7068 12.9229 8.52633
Spine1  40.461 5.67522 23.6792
HEad  -38.0712 -36.7098 -9.57971
LeftShoulder1  7.8066 -20.1924 -26.7437
LeftArm  -17.3424 -75.1864 -61.161
LeftForeArm  6.87952 -2.14517 -9.58482
LeftHand  -1.52664 -8.24217 13.3036
RightShoulder  3.06041 26.2896 1.97665
RightArm  -47.0915 32.8235 -10.8115
RightForeArm  -4.72131 2.95294 5.88679
RightHand  -0.00287076 24.3906 -0.525653
LeftUpLeg  -79.3426 10.0043 11.704
LeftLeg  111.188 2.00333 -5.3932
LeftFoot  -42.0862 1.04174 2.85441
LeftToes  -6.43926e-010 8.38805e-011 -3.16407e-011
409
root  11.992 22.8923 -101.341 -165.858 -10.4452 -172.934
RightUpLeg  -82.6062 10.5257 -1.23304
RightLeg  103.822 0.477718 -0.473661
RightFoot  -34.6793 1.89883 10.3202
RightToes  -1.74624e-010 0 -3.6325e-017
Spine  31.1236 12.5058 8.56518
Spine1  39.49 6.13088 22.4158
HEad  -38.3589 -35.6744 -8.88205
LeftShoulder1  7.71391 -19.8115 -26.8963
LeftArm  -19.1847 -75.7286 -58.7227
LeftForeArm  6.17305 -1.31303 -9.40849
LeftHand  -1.43546 -7.11195 13.6139
RightShoulder  3.29011 28.0689 2.12238
RightArm  -47.4507 33.5266 -11.2856
RightForeArm  -4.69599 0.734162 5.53052
RightHand  -0.0832905 24.153 -0.837096
LeftUpLeg  -78.8898 10.39 11.5445
LeftLeg  109.065 1.68468 -5.1581
LeftFoot  -41.4266 1.01076 2.82063
LeftToes  -6.43926e-010 8.38805e-011 -3.16407e-011
410
root  12.0795 23.5841 -101.281 -165.228 -10.4404 -172.99
RightUpLeg  -81.4615 10.8619 -1.14442
RightLeg  100.769 0.603149 -1.20269
RightFoot  -33.8606 1.77986 10.0816
RightToes  -1.74624e-010 0 -3.6325e-017
Spine  31.5599 11.5324 8.00729
Spine1  37.9533 6.31069 20.3628
HEad  -37.7825 -33.3848 -8.04424
LeftShoulder1  7.46901 -18.743 -27.4191
LeftArm  -21.6076 -76.6523 -54.3628
LeftForeArm  7.38254 0.596587 -9.54694
LeftHand  -1.43258 -5.83554 15.0592
RightShoulder  3.8518 31.3744 2.7741
RightArm  -47.2322 34.1109 -11.7111
RightForeArm  -4.8992 -1.80435 5.33448
RightHand  0.143898 22.7891 0.0783008
LeftUpLeg  -77.8642 10.2527 11.387
LeftLeg  106.052 1.32188 -4.96454
LeftFoot  -40.6043 1.00892 2.91664
LeftToes  -6.43926e-010 8.38805e-011 -3.16407e-011
411
root  12.1484 24.4283 -101.235 -164.808 -10.3167 -173.005
RightUpLeg  -79.76 11.2374 -1.0481
RightLeg  97.2075 0.579319 -1.61508
RightFoot  -32.6655 1.65382 9.94889
RightToes  -1.74624e-010 0 -3.6325e-017
Spine  32.2522 10.1161 7.39405
Spine1  36.0756 6.37289 17.3474
HEad  -37.2645 -29.8946 -6.82399
LeftShoulder1  7.03171 -17.3794 -27.5412
LeftArm  -25.6386 -77.9628 -47.1508
LeftForeArm  8.49898 3.39925 -9.87375
LeftHand  -1.49273 -4.64533 17.4476
RightShoulder  4.84438 35.6653 4.17237
RightArm  -47.0938 35.0528 -11.9831
RightForeArm  -2.89058 -4.48787 5.12062
RightHand  -0.199137 21.1462 -1.36352
LeftUpLeg  -76.2634 10.2712 11.1371
LeftLeg  102.516 0.922181 -4.68194
LeftFoot  -39.51 0.975342 2.92894
LeftToes  -6.43926e-010 8.38805e-011 -3.16407e-011
412
root  12.2216 25.4236 -101.197 -164.506 -10.0485 -173.297
RightUpLeg  -77.616 11.5024 -1.13582
RightLeg  93.1631 0.473872 -1.87739
RightFoot  -30.9949 1.43176 9.4687
RightToes  -1.74624e-010 0 -3.6325e-017
Spine  33.2623 8.86188 6.86637
Spine1  33.7214 6.94064 13.9011
HEad  -36.7175 -27.2392 -5.22753
LeftShoulder1  6.62704 -16.7973 -26.4858
LeftArm  -29.582 -78.7689 -41.9235
LeftForeArm  8.13181 6.32924 -9.50239
LeftHand  -1.43041 -3.84426 18.1324
RightShoulder  6.16806 38.6991 6.58313
RightArm  -46.5042 36.2197 -11.9279
RightForeArm  -0.744428 -6.5585 5.16377
RightHand  -0.494759 19.6201 -2.76954
LeftUpLeg  -74.1937 10.4606 10.5338
LeftLeg  98.4405 0.54564 -4.50887
LeftFoot  -37.6663 0.962616 3.13765
LeftToes  -6.43926e-010 8.38805e-011 -3.16407e-011
413
root  12.2668 26.5841 -101.177 -164.367 -9.54868 -173.301
RightUpLeg  -74.7127 11.8919 -0.90562
RightLeg  88.1506 0.295768 -1.94679
RightFoot  -29.1638 1.21509 9.00113
RightToes  -1.74624e-010 0 -3.6325e-017
Spine  34.8404 7.47059 7.00533
Spine1  30.5561 7.86928 9.56207
HEad  -35.9568 -24.7221 -3.28413
LeftShoulder1  6.17018 -16.4949 -24.6223
LeftArm  -32.6756 -78.5844 -37.9172
LeftForeArm  4.91778 7.43286 -9.47029
LeftHand  -1.07135 -1.85408 17.286
RightShoulder  8.23889 41.0739 10.7317
RightArm  -46.5683 37.4261 -11.584
RightForeArm  2.14643 -6.70657 5.22574
RightHand  -0.507559 18.7595 -2.90812
LeftUpLeg  -71.4236 10.6948 10.2697
LeftLeg  93.6371 0.139946 -4.26425
LeftFoot  -35.9 0.845459 2.88433
LeftToes  -6.43926e-010 8.38805e-011 -3.16407e-011
414
root  12.2593 27.9521 -101.12 -164.293 -8.61458 -172.982
RightUpLeg  -71.2871 12.4605 -0.456685
RightLeg  81.945 0.0996839 -1.68313
RightFoot  -26.4445 0.961754 8.59816
RightToes  -1.74624e-010 0 -3.6325e-017
Spine  36.3642 5.9287 7.69076
Spine1  27.4471 8.52622 4.86113
HEad  -35.0218 -22.0293 -1.53094
LeftShoulder1  5.69212 -15.7824 -23.2224
LeftArm  -33.3529 -77.3476 -35.3548
LeftForeArm  3.32468 7.52 -10.0918
LeftHand  -1.12726 -2.11125 17.5654
RightShoulder  10.8426 43.1488 15.7631
RightArm  -46.8124 38.2706 -10.808
RightForeArm  1.87994 -6.69932 5.19839
RightHand  -0.281576 18.2905 -1.85498
LeftUpLeg  -68.0247 11.2576 10.1692
LeftLeg  87.8296 -0.288699 -3.82094
LeftFoot  -33.5891 0.799703 3.03343
LeftToes  -6.43926e-010 8.38805e-011 -3.16407e-011
415
root  12.2405 29.328 -101.154 -164.39 -7.79684 -172.931
RightUpLeg  -67.3402 13.2385 -0.334484
RightLeg  75.513 -0.129537 -1.79724
RightFoot  -23.9453 0.760413 8.34657
RightToes  -1.74624e-010 0 -3.6325e-017
Spine  37.8034 4.82248 7.6958
Spine1  24.1067 8.80206 1.53486
HEad  -33.6551 -19.7909 -0.718143
LeftShoulder1  5.33021 -14.9235 -22.6094
LeftArm  -30.5995 -75.2734 -36.273
LeftForeArm  1.38805 7.66683 -11.1258
LeftHand  -1.10117 -1.89912 17.6497
RightShoulder  13.2944 44.1961 20.5974
RightArm  -45.1055 38.6153 -9.70566
RightForeArm  2.48517 -6.78889 5.69854
RightHand  0.049534 18.1183 -0.24158
LeftUpLeg  -64.179 11.6679 9.87881
LeftLeg  81.7846 -0.650174 -3.41032
LeftFoot  -31.3662 0.677214 2.76297
LeftToes  -6.43926e-010 8.38805e-011 -3.16407e-011
416
root  12.1747 30.8092 -101.208 -164.94 -7.1626 -173.205
RightUpLeg  -62.3623 13.296 -0.223421
RightLeg  68.329 -0.276783 -1.50874
RightFoot  -21.1186 0.545627 8.04482
RightToes  -1.74624e-010 0 -3.6325e-017
Spine  39.6247 3.75373 7.55434
Spine1  20.4438 8.63913 -1.12632
HEad  -31.9973 -17.6173 -0.277844
LeftShoulder1  5.04256 -14.0253 -22.4496
LeftArm  -27.1989 -72.5594 -37.873
LeftForeArm  0.201155 7.8359 -12.2757
LeftHand  -1.03017 -2.25451 15.797
RightShoulder  15.7 44.479 25.5993
RightArm  -41.7605 38.3272 -8.3195
RightForeArm  3.83133 -6.94702 6.57694
RightHand  0.455179 18.5801 1.69961
LeftUpLeg  -59.4258 11.821 9.26902
LeftLeg  74.9052 -0.988744 -3.02474
LeftFoot  -28.5934 0.620189 2.95192
LeftToes  -6.43926e-010 8.38805e-011 -3.16407e-011
417
root  12.0884 32.3112 -101.285 -165.663 -6.4296 -173.372
RightUpLeg  -56.91 13.7404 -0.15541
RightLeg  60.4231 -0.50575 -1.47035
RightFoot  -17.9385 0.324386 7.73131
RightToes  -1.74624e-010 0 -3.6325e-017
Spine  41.6087 2.78039 7.35888
Spine1  16.1501 8.29502 -3.50635
HEad  -29.6758 -15.0385 -0.163734
LeftShoulder1  4.80194 -13.1209 -22.5814
LeftArm  -24.2249 -68.848 -38.9557
LeftForeArm  -0.0624128 8.00965 -13.4074
LeftHand  -0.948637 -2.8634 13.5419
RightShoulder  18.1089 44.0577 31.0388
RightArm  -37.4248 37.6192 -6.33568
RightForeArm  5.40535 -7.12671 7.59299
RightHand  0.781634 19.112 3.18132
LeftUpLeg  -54.1432 11.9337 8.8806
LeftLeg  67.3829 -1.2908 -2.63719
LeftFoot  -25.7714 0.525311 2.92409
LeftToes  -6.43926e-010 8.38805e-011 -3.16407e-011
418
root  11.9859 33.8116 -101.397 -166.427 -5.70937 -173.454
RightUpLeg  -51.0167 14.5793 -0.170258
RightLeg  51.6419 -0.992225 -1.71553
RightFoot  -14.3244 0.103128 7.68761
RightToes  -1.74624e-010 0 -3.6325e-017
Spine  43.5647 1.9174 7.12298
Spine1  11.3948 7.7617 -5.51293
HEad  -27.2552 -12.3793 -0.0509773
LeftShoulder1  4.61617 -12.2547 -23.02
LeftArm  -21.5997 -64.1851 -39.5141
LeftForeArm  0.0446497 8.18362 -14.5573
LeftHand  -0.789287 -2.9125 11.2549
RightShoulder  20.3402 42.998 36.6755
RightArm  -31.4241 36.225 -4.30976
RightForeArm  6.21918 -6.92708 9.06343
RightHand  0.770373 19.2368 3.10916
LeftUpLeg  -48.4704 12.1448 8.58376
LeftLeg  59.1313 -1.5112 -2.15497
LeftFoot  -22.6825 0.441093 3.06858
LeftToes  -6.43926e-010 8.38805e-011 -3.16407e-011
419
root  11.8802 35.2142 -101.54 -167.448 -4.89099 -173.897
RightUpLeg  -44.8277 16.0092 -0.712714
RightLeg  42.6458 -1.88451 -2.14957
RightFoot  -10.445 -0.133736 7.9992
RightToes  -1.74624e-010 0 -3.6325e-017
Spine  45.4754 1.34191 6.34179
Spine1  6.28939 7.04172 -6.97397
HEad  -23.785 -9.72677 -0.199238
LeftShoulder1  4.45856 -11.4054 -23.6701
LeftArm  -17.2611 -59.0321 -39.9437
LeftForeArm  1.45879 7.94195 -15.865
LeftHand  -0.830965 -4.03261 10.4948
RightShoulder  22.1444 41.2991 42.1884
RightArm  -25.7642 34.4147 -2.48317
RightForeArm  8.57776 -6.52626 10.3439
RightHand  0.829929 19.4028 3.36001
LeftUpLeg  -42.3075 12.4214 8.02541
LeftLeg  50.5463 -1.77852 -1.84577
LeftFoot  -19.3535 0.337882 3.16382
LeftToes  -6.43926e-010 8.38805e-011 -3.16407e-011
